<svg id="Ebene_1" data-name="Ebene 1" xmlns="http://www.w3.org/2000/svg" viewBox="0 0 85 43"><defs><style>.cls-1{fill:#fff;}.cls-2{fill:#f6ba00;}</style></defs><title>Zeichenfläche 1</title><g id="Ebene_2" data-name="Ebene 2"><rect class="cls-1" width="85" height="43"/></g><path d="M44.6,31.65s-.19-1.42-1.2-1.51a2.09,2.09,0,0,0-1.63.58l-.22-.58-.94.36.17.35v6.22l1.11-.28,0-1.92s.4.38,1.68.14S44.6,31.65,44.6,31.65Zm-1.08,1.71c-.09.55-.37.9-.89.9a1,1,0,0,1-.71-.21V31.41c.63-.61,1.19-.35,1.36,0A4.3,4.3,0,0,1,43.52,33.36Z"/><path d="M49.77,30.34,51.4,35h.53s-.1,1.15-.57,1.2a2.22,2.22,0,0,1-1.15-.35l-.32.87a2.2,2.2,0,0,0,1.73.28c.94-.26,1.15-1.33,1.56-3.09s1-3.57,1-3.57l-1.11-.13-.91,4.24-1.11-4.2Z"/><path d="M54.89,30.44,55,31l.08,3.94h1.15V31.51s.81-.94,1.27,0v3.41h1.15V31.45a1.33,1.33,0,0,1,1-.34c.4.12.37.44.37,1V35h1.13V31.43a1.29,1.29,0,0,0-.89-1.32c-1-.26-1.68.77-1.68.77a1,1,0,0,0-1-.72,2,2,0,0,0-1.38.69l-.33-.73Z"/><path d="M66.17,32.92c.15-1-.36-3-1.92-2.76a2.32,2.32,0,0,0-2,2.71c.1,1.23.56,2.14,1.77,2.25a3,3,0,0,0,2-.47l-.32-.77s-.21.37-1.19.36c-1.19,0-1.17-1.33-1.17-1.33h2.86Zm-2-2c.91,0,.75,1.16.75,1.16H63.38S63.29,31,64.2,31Z"/><path d="M67.09,30.52l.2.81V35h1.12V31.45a.94.94,0,0,1,.91-.36.7.7,0,0,1,.57.75v3.1h1.16V31.26s-.25-1.1-1.17-1.1a2.48,2.48,0,0,0-1.59.69l-.23-.72Z"/><path d="M72.73,29V30.3h-.81v.77h.84v2.77s0,1.2.92,1.22a5,5,0,0,0,1.54-.21l-.2-.91s-1.15.59-1.17-.17,0-2.64,0-2.64h1.08l.19-.89H73.85V28.82Z"/><path d="M78.61,31.26A5.13,5.13,0,0,0,79,30.6a2.21,2.21,0,0,0-1.47-.47,1.61,1.61,0,0,0-1.71,1.51v.16c0,.86.78,1.06,1.66,1.37s.48,1.07.09,1.09A7,7,0,0,1,76,33.78l-.3.86a3.47,3.47,0,0,0,1.78.45A1.43,1.43,0,0,0,79,33.85a1.32,1.32,0,0,0-.72-1.42c-.81-.47-1.47-.42-1.46-.95S77.75,30.85,78.61,31.26Z"/><path d="M49.14,33.57V31.39a1.31,1.31,0,0,0-1-1.18,4.72,4.72,0,0,0-2.32.29l.26.83A7.91,7.91,0,0,1,47.41,31c.34,0,.66.22.64,1.07,0,0-1.66-.12-2.3.77A1.37,1.37,0,0,0,46,34.77a.92.92,0,0,0,.27.16,1.46,1.46,0,0,0,1.84-.31s.2-.2.32.47l.94-.34A2.79,2.79,0,0,1,49.14,33.57ZM48,32.87v1s-.07.38-.72.41a.65.65,0,0,1-.69-.61v-.09a.81.81,0,0,1,.8-.73A2.48,2.48,0,0,1,48,32.87Z"/><path d="M8.35,14.05l-2.11-.43a3.63,3.63,0,0,1,1.24-2.06,4.31,4.31,0,0,1,2.62-.66,5.28,5.28,0,0,1,2.36.4,2.5,2.5,0,0,1,1.09,1,5.7,5.7,0,0,1,.31,2.28l-.06,3a11,11,0,0,0,.11,1.9,5.44,5.44,0,0,0,.43,1.29H12c-.06-.2-.13-.48-.22-.82,0-.15-.07-.25-.09-.3a4.15,4.15,0,0,1-1.29.95A3.52,3.52,0,0,1,9,20.93a2.9,2.9,0,0,1-2.16-.81,2.76,2.76,0,0,1-.79-2,2.81,2.81,0,0,1,.37-1.44,2.42,2.42,0,0,1,1-1,7.2,7.2,0,0,1,1.86-.59,12.94,12.94,0,0,0,2.29-.63v-.26a1.4,1.4,0,0,0-.35-1,1.89,1.89,0,0,0-1.29-.29,1.65,1.65,0,0,0-1,.27A1.88,1.88,0,0,0,8.35,14.05Zm3.18,2.06a11.61,11.61,0,0,1-1.43.39A4.25,4.25,0,0,0,8.82,17a1.08,1.08,0,0,0-.47.89,1.3,1.3,0,0,0,.37.95,1.24,1.24,0,0,0,.94.39,1.91,1.91,0,0,0,1.21-.48,1.63,1.63,0,0,0,.57-.84,6.41,6.41,0,0,0,.09-1.24v-.51Z"/><path d="M16.3,11.11h2v1.31A3.17,3.17,0,0,1,21,10.89a2.61,2.61,0,0,1,1.42.38,2.71,2.71,0,0,1,1,1.15,4.2,4.2,0,0,1,1.19-1.15,2.67,2.67,0,0,1,1.37-.38,2.74,2.74,0,0,1,1.57.43,2.54,2.54,0,0,1,.94,1.27,6.11,6.11,0,0,1,.24,2v6.16H26.41V15.22a4.85,4.85,0,0,0-.22-1.85,1,1,0,0,0-1-.54,1.33,1.33,0,0,0-.87.33,1.84,1.84,0,0,0-.6.94,7.46,7.46,0,0,0-.18,2v4.63H21.36V15.45a8.43,8.43,0,0,0-.1-1.81A1.12,1.12,0,0,0,20.9,13a1.14,1.14,0,0,0-.69-.18,1.55,1.55,0,0,0-.95.32,1.79,1.79,0,0,0-.59.91,7.84,7.84,0,0,0-.17,2v4.68H16.3Z"/><path d="M32.54,14.05l-2.1-.43a3.54,3.54,0,0,1,1.24-2.06,4.3,4.3,0,0,1,2.61-.67,5.34,5.34,0,0,1,2.37.4,2.39,2.39,0,0,1,1.08,1,5.51,5.51,0,0,1,.31,2.28l0,3a11,11,0,0,0,.11,1.9,5.9,5.9,0,0,0,.42,1.29H36.21A7.7,7.7,0,0,1,36,20a2,2,0,0,0-.09-.3,4.28,4.28,0,0,1-1.29.94,3.31,3.31,0,0,1-1.46.32,2.89,2.89,0,0,1-2.16-.8,2.82,2.82,0,0,1-.79-2,2.93,2.93,0,0,1,.36-1.51,2.42,2.42,0,0,1,1-1,7.2,7.2,0,0,1,1.86-.59,12.94,12.94,0,0,0,2.29-.63v-.26a1.39,1.39,0,0,0-.34-1,2,2,0,0,0-1.28-.29,1.65,1.65,0,0,0-1,.27A1.92,1.92,0,0,0,32.54,14.05Zm3.18,2.06a12,12,0,0,1-1.42.39A4.21,4.21,0,0,0,33,17a1.08,1.08,0,0,0-.47.89,1.3,1.3,0,0,0,.37.95,1.25,1.25,0,0,0,1,.39,1.91,1.91,0,0,0,1.2-.48,1.57,1.57,0,0,0,.57-.84,6.41,6.41,0,0,0,.09-1.24v-.51Z"/><path d="M47.79,15.78a5.77,5.77,0,0,1,.55-2.45,4,4,0,0,1,3.71-2.44,3.86,3.86,0,0,1,3.08,1.42,5.35,5.35,0,0,1,1.2,3.58,5.46,5.46,0,0,1-1.2,3.6,3.82,3.82,0,0,1-3.05,1.42,4.27,4.27,0,0,1-2.17-.6,3.92,3.92,0,0,1-1.57-1.75A6.64,6.64,0,0,1,47.79,15.78Zm2.24.14a3.65,3.65,0,0,0,.6,2.2,1.75,1.75,0,0,0,2.88,0,3.58,3.58,0,0,0,.59-2.22,3.51,3.51,0,0,0-.59-2.18,1.74,1.74,0,0,0-2.42-.46,1.68,1.68,0,0,0-.46.46,3.56,3.56,0,0,0-.58,2.2Z"/><path d="M64.81,20.73H62.66V15.81a8.47,8.47,0,0,0-.14-2,1.34,1.34,0,0,0-.45-.71,1.09,1.09,0,0,0-.73-.24,1.53,1.53,0,0,0-1,.37,1.79,1.79,0,0,0-.61.95,9.61,9.61,0,0,0-.17,2.21v4.36H57.42V11.11h2v1.42a3.12,3.12,0,0,1,2.67-1.63,2.92,2.92,0,0,1,1.3.3,2.31,2.31,0,0,1,.89.78,3,3,0,0,1,.42,1.07,9.84,9.84,0,0,1,.12,1.71v6Z"/><path class="cls-2" d="M14.1,22.24s7.32,4.09,15.33,4.09a46.79,46.79,0,0,0,13.46-2.41S39,28.38,29.09,28.38,14.1,22.24,14.1,22.24Z"/><path d="M43.64,18.5l-1.11.06,1.09-1.42,3.1-4.27V11.11H40v2.1h2.85a7,7,0,0,0,1,0c-.24.28-.61.77-1.1,1.45l-3,4.13v2h1.53a10.79,10.79,0,0,1,4.3-.43l.95.1,0,.33H47V18.5H43.64Z"/><path class="cls-2" d="M43,27.43s2.94-1.38,2.42-5.95c0,0-3.62-.43-5.52,1.38l4.05.08Z"/></svg>