<svg xmlns="http://www.w3.org/2000/svg" xmlns:xlink="http://www.w3.org/1999/xlink" viewBox="0 0 43 44.69">
  <defs>
    <radialGradient id="bde8488f-2f65-454c-b511-a28a3d2d9372" cx="21.5" cy="23.19" r="21.5" gradientUnits="userSpaceOnUse">
      <stop offset="0" stop-color="#000057"/>
      <stop offset="0.39" stop-color="#7575a4" stop-opacity="0.54"/>
      <stop offset="0.79" stop-color="#d9d9e6" stop-opacity="0.15"/>
      <stop offset="1" stop-color="#fff" stop-opacity="0"/>
    </radialGradient>
  </defs>
  <title>facebook</title>
  <g style="isolation: isolate">
    <g id="ade1f0f1-f9e5-4bfd-8e90-9e68ce538686" data-name="ELEMENTS">
      <circle cx="21.5" cy="23.19" r="21.5" opacity="0.8" fill="url(#bde8488f-2f65-454c-b511-a28a3d2d9372)" style="mix-blend-mode: multiply"/>
      <path d="M187.88,66.34A14.62,14.62,0,1,0,171,80.78V70.57h-3.71V66.34H171V63.12c0-3.67,2.19-5.69,5.53-5.69a22.08,22.08,0,0,1,3.27.29v3.59h-1.84a2.12,2.12,0,0,0-2.39,2.29v2.74h4.06L179,70.57h-3.41V80.78A14.62,14.62,0,0,0,187.88,66.34Z" transform="translate(-157 -51.72)" fill="#00616a"/>
      <path d="M179,70.57l.65-4.23h-4.06V63.6a2.12,2.12,0,0,1,2.39-2.29h1.84V57.72a22.08,22.08,0,0,0-3.27-.29c-3.34,0-5.53,2-5.53,5.69v3.22h-3.71v4.23H171V80.78a14.44,14.44,0,0,0,2.29.18,14.22,14.22,0,0,0,2.28-.18V70.57Z" transform="translate(-157 -51.72)" fill="#fff"/>
    </g>
  </g>
</svg>
