<?xml version="1.0" encoding="utf-8"?>
<!-- Generator: Adobe Illustrator 16.0.0, SVG Export Plug-In . SVG Version: 6.00 Build 0)  -->
<!DOCTYPE svg PUBLIC "-//W3C//DTD SVG 1.1//EN" "http://www.w3.org/Graphics/SVG/1.1/DTD/svg11.dtd">
<svg version="1.1" id="Layer_1" xmlns="http://www.w3.org/2000/svg" xmlns:xlink="http://www.w3.org/1999/xlink" x="0px" y="0px"
	 width="960px" height="560px" viewBox="0 0 960 560" enable-background="new 0 0 960 560" xml:space="preserve">
<g>
	<g>
		<g>
			<path fill-rule="evenodd" clip-rule="evenodd" fill="#000005" d="M238.943,290.211c-1.062,0.057-1.992,0.045-2.945,0.008
				c-0.323-0.367-0.637-0.711-0.936-1.066c-6.448-7.674-12.895-15.348-19.342-23.022c-0.233-0.278-0.462-0.562-0.703-0.833
				c-0.13-0.146-0.252-0.381-0.476-0.317c-0.339,0.095-0.204,0.423-0.232,0.659c-0.025,0.205-0.007,0.414-0.007,0.623
				c0,15.32,0,30.641,0,45.961c0,0.26,0.015,0.52,0.002,0.779c-0.023,0.473,0.21,0.777,0.6,1.002
				c0.314,0.182,0.614,0.389,0.927,0.574c4.608,2.723,9.539,4.545,14.831,5.406c3.143,0.512,6.301,0.707,9.468,0.48
				c9.07-0.646,17.164-3.818,24.223-9.57c3.904-3.182,7.116-6.965,9.668-11.307c0.184-0.314,0.354-0.637,0.553-0.939
				c0.111-0.17,0.27-0.307,0.385-0.434c1.591-0.09,5.107-0.076,6.268,0.021c0.039,0.094,0.117,0.189,0.109,0.279
				c-0.012,0.15-0.059,0.305-0.127,0.441c-4.113,8.346-10.007,15.113-17.878,20.117c-5.231,3.326-10.909,5.531-16.994,6.684
				c-3.173,0.602-6.381,0.807-9.609,0.771c-7.234-0.076-14.079-1.754-20.574-4.914c-0.373-0.182-0.741-0.373-1.115-0.555
				c-0.5-0.244-0.718-0.148-0.719,0.34c-0.007,2.441-0.006,4.881-0.001,7.322c0,0.15,0.056,0.301,0.081,0.43
				c0.343,0.389,0.81,0.508,1.234,0.689c3.109,1.33,6.32,2.357,9.618,3.096c5.15,1.154,10.37,1.574,15.632,1.244
				c8.466-0.531,16.456-2.787,23.867-6.945c11.216-6.293,19.31-15.408,24.396-27.207c0.951-2.205,0.434-1.834,2.765-1.869
				c1.143-0.016,2.285-0.006,3.428,0.002c0.204,0.002,0.413,0.029,0.609,0.082c0.076,0.02,0.178,0.146,0.173,0.219
				c-0.014,0.203-0.054,0.41-0.123,0.602c-6.915,19.098-21.979,32.635-39.547,38.277c-3.568,1.146-7.213,1.949-10.924,2.445
				c-3.042,0.404-6.103,0.508-9.17,0.473c-7.079-0.082-13.922-1.408-20.559-3.852c-0.385-0.143-0.784-0.248-1.183-0.348
				c-0.061-0.016-0.209,0.086-0.222,0.152c-0.051,0.25-0.086,0.508-0.087,0.764c-0.007,1.662-0.004,3.324-0.005,4.984
				c0,0.416,0.001,0.832-0.011,1.246c-0.015,0.494-0.188,0.703-0.626,0.705c-1.61,0.008-3.219,0.002-4.829-0.004
				c-0.1,0-0.211-0.027-0.296-0.078c-0.082-0.049-0.186-0.137-0.197-0.219c-0.048-0.357-0.091-0.719-0.092-1.078
				c-0.007-2.648-0.003-5.297-0.006-7.945c0-0.416-0.007-0.832-0.032-1.246c-0.013-0.213-0.132-0.395-0.316-0.508
				c-0.399-0.244-0.805-0.475-1.209-0.707c-10.095-5.82-17.979-13.822-23.634-24.008c-3.227-5.811-5.416-12.004-6.644-18.533
				c-0.946-5.027-1.256-10.105-0.922-15.201c0.834-12.736,5.099-24.217,12.958-34.287c8.308-10.645,18.994-17.846,31.965-21.628
				c2.793-0.815,5.64-1.378,8.523-1.79c4.183-0.6,8.383-0.73,12.587-0.463c6.946,0.439,13.641,2.014,20.06,4.727
				c17.279,7.305,30.318,21.945,35.559,39.959c1.002,3.444,1.676,6.955,2.066,10.527c0.424,3.887,0.409,7.775,0.186,11.668
				c-0.065,1.139-0.224,2.273-0.355,3.408c-0.036,0.307-0.105,0.615-0.206,0.906c-0.042,0.123-0.193,0.271-0.314,0.293
				c-0.303,0.057-0.618,0.061-0.928,0.063c-1.609,0.004-3.22,0.002-4.83,0.002c-7.946,0-15.892,0-23.838,0
				c-0.467,0-0.935-0.004-1.401,0.008c-0.678,0.016-0.81,0.141-0.814,0.826c-0.01,1.662-0.007,3.324-0.007,4.986
				c0,2.076,0.002,4.154-0.002,6.232c0,0.363-0.023,0.725-0.042,1.088c-0.008,0.158-0.251,0.379-0.424,0.4
				c-0.051,0.004-0.102,0.023-0.152,0.023c-1.61,0-3.218,0-4.828-0.006c-0.099,0-0.21-0.031-0.292-0.084
				c-0.083-0.053-0.184-0.146-0.192-0.23c-0.042-0.412-0.077-0.826-0.078-1.24c-0.004-5.506-0.004-11.01-0.001-16.516
				c0.001-0.363,0.024-0.727,0.044-1.088c0.008-0.146,0.27-0.389,0.43-0.395c0.57-0.02,1.141-0.043,1.711-0.043
				c9.452-0.004,18.904-0.002,28.356-0.004c0.57,0,1.142-0.018,1.712-0.037c0.257-0.01,0.498-0.246,0.521-0.488
				c0.024-0.26,0.051-0.518,0.056-0.777c0.042-2.544,0.025-5.082-0.219-7.624c-0.701-7.276-2.749-14.144-6.14-20.608
				c-7.066-13.468-19.808-24.368-36.269-28.467c-2.924-0.727-5.893-1.215-8.906-1.427c-1.503-0.105-3.003-0.218-4.511-0.206
				c-11.762,0.096-22.53,3.396-32.142,10.192c-10.955,7.747-18.273,18.12-21.926,31.049c-0.962,3.405-1.551,6.879-1.826,10.411
				c-0.162,2.074-0.256,4.148-0.171,6.226c0.498,12.202,4.435,23.159,11.957,32.8c3.737,4.791,8.16,8.848,13.226,12.201
				c0.389,0.258,0.794,0.49,1.195,0.727c0.171,0.102,0.414-0.061,0.431-0.275c0.009-0.105,0.025-0.209,0.025-0.311
				c0.002-2.545,0.003-5.09,0.004-7.635c0-0.105-0.002-0.209-0.011-0.313c-0.023-0.266-0.102-0.504-0.321-0.68
				c-0.325-0.258-0.649-0.518-0.97-0.781c-7.924-6.541-13.312-14.742-16.094-24.641c-0.731-2.602-1.198-5.254-1.484-7.947
				c-0.286-2.697-0.336-5.395-0.157-8.09c0.458-6.879,2.296-13.375,5.519-19.479c5.522-10.458,15.933-20.604,31.391-24.389
				c4.776-1.17,9.636-1.598,14.533-1.237c11.96,0.88,22.281,5.483,30.843,13.903c6.329,6.223,10.574,13.674,12.818,22.262
				c0.526,2.012,0.931,4.047,1.153,6.115c0.055,0.514,0.113,1.027,0.167,1.542c0.011,0.108-0.17,0.311-0.287,0.316
				c-0.415,0.022-0.829,0.054-1.243,0.054c-3.064,0.004-6.128,0.002-9.192,0.002c-4.102,0-8.205,0.002-12.309-0.001
				c-0.467,0-0.934-0.014-1.4-0.03c-0.257-0.009-0.477-0.234-0.486-0.504c-0.017-0.467-0.028-0.934-0.028-1.4
				c-0.003-2.129,0.002-4.259-0.007-6.389c-0.001-0.25-0.053-0.506-0.114-0.75c-0.029-0.12-0.168-0.155-0.253-0.072
				c-0.259,0.248-0.519,0.5-0.75,0.775c-3.178,3.773-6.351,7.551-9.523,11.329c-3.373,4.017-6.745,8.034-10.12,12.05
				C239.616,289.48,239.296,289.816,238.943,290.211z M266.551,254.876c0.219,0.567,0.14,1.093,0.141,1.606
				c0.007,3.221,0.003,6.439,0.004,9.66c0,0.416-0.002,0.831,0.012,1.246c0.005,0.153,0.031,0.313,0.086,0.455
				c0.034,0.086,0.128,0.178,0.216,0.207c0.144,0.049,0.305,0.068,0.458,0.068c3.428,0.005,6.855,0.006,10.283,0.004
				c0.154,0,0.308-0.033,0.462-0.047c0.116-0.011,0.296-0.221,0.269-0.328c-0.14-0.553-0.264-1.109-0.43-1.654
				c-2.874-9.43-8.375-16.967-16.421-22.635c-5.71-4.023-12.07-6.432-18.993-7.303c-2.835-0.357-5.685-0.442-8.549-0.178
				c-2.959,0.275-5.858,0.789-8.706,1.629c-16.391,4.838-29.771,20.02-30.268,39.75c-0.076,3.021,0.224,6.014,0.809,8.979
				c1.634,8.279,5.445,15.41,11.302,21.463c0.18,0.186,0.373,0.361,0.578,0.516c0.063,0.049,0.188,0.025,0.283,0.014
				c0.032-0.006,0.077-0.076,0.08-0.117c0.03-0.516,0.074-1.031,0.074-1.547c0.004-10.699,0.003-21.396,0.003-32.096
				c0-5.973-0.002-11.944,0.003-17.918c0-0.568-0.062-1.143,0.087-1.72c0.119-0.085,0.232-0.21,0.372-0.259
				c1.373-0.473,2.75-0.936,4.129-1.391c0.206-0.068,0.417-0.006,0.569,0.156c0.214,0.226,0.416,0.463,0.617,0.702
				c4.378,5.206,8.755,10.415,13.133,15.622c3.141,3.736,6.282,7.474,9.426,11.207c0.233,0.277,0.485,0.539,0.747,0.789
				c0.052,0.051,0.23,0.055,0.281,0.006c0.264-0.246,0.519-0.506,0.751-0.781c6.121-7.27,12.239-14.543,18.358-21.814
				c1.571-1.867,3.142-3.735,4.718-5.6c0.197-0.232,0.365-0.516,0.792-0.547C263.657,253.605,265.144,254.206,266.551,254.876z"/>
		</g>
	</g>
	<g>
		<g>
			<path fill="#000005" d="M382.378,284.375l-20.074-39.736v31.553c0,2.902,0.345,4.713,1.034,5.434
				c0.945,0.975,2.439,1.463,4.482,1.463h1.839v1.287h-18.082v-1.287h1.839c2.196,0,3.754-0.604,4.674-1.813
				c0.561-0.742,0.843-2.438,0.843-5.084v-30.856c0-2.09-0.256-3.599-0.767-4.528c-0.358-0.672-1.015-1.236-1.973-1.688
				c-0.958-0.452-2.497-0.679-4.616-0.679v-1.289h14.711l18.848,36.951l18.542-36.951h14.711v1.289h-1.8
				c-2.222,0-3.793,0.604-4.712,1.811c-0.562,0.744-0.843,2.438-0.843,5.085v30.856c0,2.902,0.357,4.713,1.073,5.434
				c0.944,0.975,2.438,1.463,4.482,1.463h1.8v1.287h-22.066v-1.287h1.839c2.222,0,3.779-0.604,4.674-1.813
				c0.562-0.742,0.843-2.438,0.843-5.084v-31.553l-20.036,39.736H382.378z"/>
			<path fill="#000005" d="M445.849,239.728v18.667h11.417c2.962,0,4.942-0.405,5.938-1.219c1.328-1.067,2.069-2.948,2.222-5.642
				h1.417v16.438h-1.417c-0.358-2.299-0.715-3.773-1.072-4.424c-0.46-0.813-1.213-1.45-2.26-1.915
				c-1.048-0.464-2.657-0.696-4.827-0.696h-11.417v15.567c0,2.09,0.102,3.36,0.307,3.813c0.204,0.453,0.562,0.813,1.073,1.08
				c0.51,0.268,1.481,0.4,2.912,0.4h8.811c2.937,0,5.069-0.186,6.398-0.557c1.328-0.371,2.605-1.104,3.831-2.195
				c1.583-1.439,3.205-3.609,4.866-6.512h1.532l-4.482,11.84h-40.034v-1.287h1.839c1.226,0,2.388-0.268,3.486-0.803
				c0.817-0.371,1.373-0.928,1.667-1.67c0.293-0.743,0.44-2.264,0.44-4.563v-30.684c0-2.994-0.332-4.84-0.996-5.537
				c-0.919-0.928-2.452-1.393-4.597-1.393h-1.839v-1.289h40.034l0.575,10.344h-1.494c-0.536-2.484-1.13-4.191-1.781-5.119
				c-0.651-0.929-1.616-1.637-2.893-2.125c-1.021-0.348-2.822-0.522-5.401-0.522H445.849z"/>
			<path fill="#000005" d="M503.189,239.728v18.667h11.417c2.962,0,4.941-0.405,5.938-1.219c1.328-1.067,2.068-2.948,2.222-5.642
				h1.417v16.438h-1.417c-0.358-2.299-0.715-3.773-1.072-4.424c-0.46-0.813-1.214-1.45-2.261-1.915
				c-1.047-0.464-2.656-0.696-4.826-0.696h-11.417v15.567c0,2.09,0.103,3.36,0.307,3.813s0.562,0.813,1.073,1.08
				c0.51,0.268,1.48,0.4,2.911,0.4h8.812c2.936,0,5.068-0.186,6.397-0.557c1.327-0.371,2.604-1.104,3.831-2.195
				c1.583-1.439,3.205-3.609,4.865-6.512h1.532l-4.482,11.84h-40.034v-1.287h1.84c1.226,0,2.387-0.268,3.486-0.803
				c0.816-0.371,1.372-0.928,1.666-1.67c0.293-0.743,0.44-2.264,0.44-4.563v-30.684c0-2.994-0.332-4.84-0.996-5.537
				c-0.919-0.928-2.452-1.393-4.597-1.393h-1.84v-1.289h40.034l0.575,10.344h-1.494c-0.537-2.484-1.131-4.191-1.781-5.119
				c-0.652-0.929-1.616-1.637-2.893-2.125c-1.021-0.348-2.822-0.522-5.402-0.522H503.189z"/>
			<path fill="#000005" d="M567.579,258.186l19.155,17.31c3.142,2.856,5.823,4.8,8.045,5.833s4.444,1.619,6.666,1.76v1.287h-24.71
				v-1.287c1.48,0,2.548-0.227,3.199-0.68c0.65-0.453,0.977-0.957,0.977-1.516c0-0.557-0.121-1.056-0.363-1.497
				c-0.244-0.44-1.041-1.265-2.395-2.473l-17.93-16.125v15.22c0,2.392,0.166,3.971,0.498,4.736c0.256,0.58,0.791,1.08,1.609,1.498
				c1.098,0.557,2.26,0.836,3.486,0.836h1.762v1.287h-22.143v-1.287h1.839c2.146,0,3.702-0.57,4.674-1.707
				c0.612-0.742,0.919-2.53,0.919-5.363v-30.509c0-2.392-0.166-3.981-0.498-4.771c-0.256-0.558-0.779-1.045-1.57-1.463
				c-1.124-0.558-2.299-0.836-3.524-0.836h-1.839v-1.289h22.143v1.289h-1.762c-1.201,0-2.363,0.267-3.486,0.801
				c-0.792,0.371-1.341,0.929-1.647,1.672s-0.46,2.275-0.46,4.597v14.454c0.511-0.441,2.261-1.916,5.248-4.424
				c7.586-6.314,12.17-10.529,13.754-12.643c0.689-0.928,1.034-1.74,1.034-2.438c0-0.533-0.269-1.004-0.804-1.41
				c-0.537-0.406-1.443-0.609-2.721-0.609h-1.188v-1.289h19.078v1.289c-1.124,0.023-2.145,0.162-3.064,0.418
				s-2.044,0.748-3.371,1.479c-1.328,0.731-2.963,1.91-4.904,3.535c-0.563,0.465-3.154,2.845-7.777,7.14L567.579,258.186z"/>
			<path fill="#000005" d="M634.421,283.088v1.287h-22.258v-1.287h1.838c2.146,0,3.703-0.57,4.674-1.707
				c0.613-0.742,0.92-2.53,0.92-5.363v-30.509c0-2.392-0.166-3.97-0.498-4.736c-0.256-0.58-0.779-1.079-1.57-1.497
				c-1.125-0.558-2.299-0.836-3.525-0.836h-1.838v-1.289h22.258v1.289h-1.877c-2.121,0-3.666,0.568-4.636,1.706
				c-0.639,0.743-0.958,2.531-0.958,5.363v30.509c0,2.392,0.166,3.971,0.498,4.736c0.256,0.58,0.791,1.08,1.609,1.498
				c1.098,0.557,2.26,0.836,3.486,0.836H634.421z"/>
			<path fill="#000005" d="M690.728,271.316l1.264,0.243l-4.443,12.815h-40.226v-1.287h1.954c2.195,0,3.767-0.65,4.712-1.951
				c0.536-0.742,0.804-2.461,0.804-5.154v-30.474c0-2.948-0.357-4.794-1.072-5.537c-0.996-1.021-2.478-1.532-4.443-1.532h-1.954
				v-1.289h23.522v1.289c-2.759-0.023-4.693,0.209-5.805,0.696c-1.11,0.487-1.871,1.103-2.279,1.846s-0.613,2.52-0.613,5.329v29.672
				c0,1.928,0.205,3.251,0.613,3.971c0.307,0.486,0.779,0.848,1.418,1.08c0.638,0.232,2.63,0.348,5.977,0.348h3.792
				c3.984,0,6.781-0.268,8.39-0.801c1.609-0.535,3.078-1.48,4.406-2.839S689.399,274.241,690.728,271.316z"/>
			<path fill="#000005" d="M748.067,271.316l1.264,0.243l-4.443,12.815h-40.225v-1.287h1.953c2.196,0,3.768-0.65,4.713-1.951
				c0.535-0.742,0.804-2.461,0.804-5.154v-30.474c0-2.948-0.358-4.794-1.073-5.537c-0.996-1.021-2.477-1.532-4.443-1.532h-1.953
				v-1.289h23.521v1.289c-2.758-0.023-4.693,0.209-5.804,0.696s-1.871,1.103-2.279,1.846c-0.409,0.743-0.613,2.52-0.613,5.329
				v29.672c0,1.928,0.204,3.251,0.613,3.971c0.306,0.486,0.778,0.848,1.417,1.08s2.631,0.348,5.977,0.348h3.793
				c3.984,0,6.781-0.268,8.39-0.801c1.608-0.535,3.077-1.48,4.405-2.839S746.739,274.241,748.067,271.316z"/>
			<path fill="#000005" d="M784.645,283.088v1.287h-22.259v-1.287h1.84c2.145,0,3.703-0.57,4.674-1.707
				c0.613-0.742,0.919-2.53,0.919-5.363v-30.509c0-2.392-0.166-3.97-0.498-4.736c-0.255-0.58-0.779-1.079-1.57-1.497
				c-1.124-0.558-2.299-0.836-3.524-0.836h-1.84v-1.289h22.259v1.289h-1.878c-2.119,0-3.664,0.568-4.635,1.706
				c-0.639,0.743-0.958,2.531-0.958,5.363v30.509c0,2.392,0.166,3.971,0.498,4.736c0.255,0.58,0.792,1.08,1.609,1.498
				c1.098,0.557,2.261,0.836,3.485,0.836H784.645z"/>
		</g>
		<g>
			<path fill="#000005" d="M455.504,315.746h-8.459l-1.482,3.135c-0.365,0.771-0.548,1.348-0.548,1.729
				c0,0.303,0.158,0.568,0.476,0.799c0.316,0.229,1.001,0.377,2.054,0.445v0.543h-6.88v-0.543c0.913-0.146,1.504-0.336,1.772-0.57
				c0.548-0.469,1.155-1.422,1.821-2.857l7.686-16.348h0.564l7.605,16.523c0.612,1.328,1.168,2.191,1.667,2.586
				c0.5,0.396,1.195,0.617,2.087,0.666v0.543h-8.621v-0.543c0.87-0.039,1.458-0.17,1.764-0.395c0.307-0.225,0.459-0.498,0.459-0.82
				c0-0.43-0.215-1.109-0.645-2.037L455.504,315.746z M455.053,314.662l-3.706-8.027l-3.803,8.027H455.053z"/>
			<path fill="#000005" d="M488.065,302.078l0.5,6.754h-0.5c-0.666-2.021-1.617-3.477-2.852-4.365
				c-1.235-0.889-2.718-1.334-4.447-1.334c-1.451,0-2.761,0.336-3.932,1.004c-1.171,0.67-2.092,1.736-2.764,3.201
				s-1.007,3.285-1.007,5.463c0,1.797,0.317,3.355,0.951,4.674s1.587,2.328,2.86,3.031c1.273,0.703,2.726,1.055,4.359,1.055
				c1.418,0,2.67-0.275,3.755-0.826c1.085-0.553,2.276-1.648,3.577-3.289l0.499,0.293c-1.096,1.768-2.374,3.061-3.835,3.881
				s-3.195,1.23-5.204,1.23c-3.621,0-6.424-1.221-8.412-3.662c-1.482-1.816-2.224-3.955-2.224-6.416
				c0-1.982,0.489-3.803,1.466-5.463s2.323-2.947,4.037-3.859c1.713-0.914,3.585-1.371,5.616-1.371c1.579,0,3.137,0.352,4.673,1.055
				c0.451,0.215,0.772,0.322,0.966,0.322c0.291,0,0.543-0.092,0.758-0.277c0.279-0.264,0.479-0.631,0.596-1.1H488.065z"/>
			<path fill="#000005" d="M514.036,302.078l0.5,6.754h-0.5c-0.666-2.021-1.617-3.477-2.852-4.365
				c-1.236-0.889-2.719-1.334-4.447-1.334c-1.451,0-2.762,0.336-3.932,1.004c-1.172,0.67-2.093,1.736-2.764,3.201
				c-0.672,1.465-1.008,3.285-1.008,5.463c0,1.797,0.317,3.355,0.951,4.674s1.588,2.328,2.859,3.031
				c1.273,0.703,2.727,1.055,4.359,1.055c1.418,0,2.67-0.275,3.754-0.826c1.086-0.553,2.277-1.648,3.578-3.289l0.499,0.293
				c-1.096,1.768-2.374,3.061-3.835,3.881s-3.195,1.23-5.205,1.23c-3.619,0-6.424-1.221-8.41-3.662
				c-1.482-1.816-2.225-3.955-2.225-6.416c0-1.982,0.489-3.803,1.467-5.463s2.322-2.947,4.037-3.859
				c1.713-0.914,3.584-1.371,5.615-1.371c1.578,0,3.137,0.352,4.672,1.055c0.451,0.215,0.773,0.322,0.967,0.322
				c0.291,0,0.543-0.092,0.758-0.277c0.279-0.264,0.479-0.631,0.596-1.1H514.036z"/>
			<path fill="#000005" d="M527.036,303.617v7.852h4.801c1.246,0,2.079-0.172,2.498-0.514c0.559-0.449,0.87-1.24,0.935-2.373h0.597
				v6.914h-0.597c-0.15-0.967-0.301-1.586-0.451-1.859c-0.193-0.342-0.511-0.611-0.95-0.807c-0.441-0.195-1.117-0.293-2.031-0.293
				h-4.801v6.549c0,0.879,0.043,1.414,0.129,1.604c0.086,0.191,0.236,0.342,0.451,0.455c0.215,0.111,0.623,0.168,1.225,0.168h3.705
				c1.236,0,2.133-0.078,2.691-0.234s1.096-0.465,1.611-0.924c0.666-0.605,1.348-1.518,2.047-2.738h0.645l-1.886,4.98h-16.839
				v-0.543h0.773c0.516,0,1.005-0.111,1.467-0.336c0.344-0.156,0.577-0.391,0.701-0.703c0.123-0.313,0.186-0.953,0.186-1.92V305.99
				c0-1.26-0.141-2.037-0.42-2.33c-0.387-0.391-1.031-0.586-1.934-0.586h-0.773v-0.541h16.839l0.241,4.35h-0.628
				c-0.226-1.045-0.476-1.762-0.749-2.152s-0.68-0.689-1.217-0.895c-0.43-0.146-1.188-0.219-2.271-0.219H527.036z"/>
			<path fill="#000005" d="M559.388,302.078v6.871h-0.597c-0.193-1.318-0.54-2.369-1.039-3.15c-0.5-0.781-1.212-1.4-2.136-1.859
				s-1.879-0.689-2.867-0.689c-1.117,0-2.041,0.311-2.771,0.932c-0.73,0.619-1.096,1.324-1.096,2.115
				c0,0.605,0.23,1.158,0.692,1.656c0.666,0.732,2.251,1.709,4.753,2.93c2.041,0.996,3.436,1.76,4.182,2.293
				c0.746,0.531,1.321,1.158,1.725,1.881c0.402,0.723,0.604,1.48,0.604,2.271c0,1.504-0.642,2.801-1.925,3.889
				c-1.284,1.09-2.936,1.633-4.955,1.633c-0.634,0-1.229-0.043-1.788-0.131c-0.334-0.049-1.023-0.227-2.071-0.535
				c-1.047-0.307-1.71-0.461-1.989-0.461c-0.27,0-0.481,0.072-0.637,0.219c-0.156,0.146-0.271,0.449-0.347,0.908h-0.597v-6.811
				h0.597c0.279,1.426,0.655,2.492,1.128,3.201c0.473,0.707,1.195,1.295,2.167,1.764s2.038,0.703,3.198,0.703
				c1.344,0,2.404-0.322,3.183-0.967s1.169-1.406,1.169-2.285c0-0.488-0.148-0.98-0.443-1.479c-0.296-0.498-0.755-0.963-1.378-1.393
				c-0.419-0.293-1.563-0.914-3.433-1.867c-1.869-0.951-3.198-1.711-3.987-2.277c-0.79-0.566-1.389-1.191-1.797-1.875
				s-0.612-1.436-0.612-2.256c0-1.426,0.602-2.654,1.805-3.684c1.203-1.031,2.734-1.547,4.592-1.547c1.16,0,2.391,0.26,3.69,0.777
				c0.602,0.244,1.026,0.365,1.272,0.365c0.279,0,0.508-0.074,0.686-0.227c0.177-0.15,0.319-0.457,0.427-0.916H559.388z"/>
			<path fill="#000005" d="M581.7,302.078v6.871h-0.596c-0.193-1.318-0.541-2.369-1.039-3.15c-0.5-0.781-1.212-1.4-2.136-1.859
				s-1.88-0.689-2.868-0.689c-1.117,0-2.041,0.311-2.771,0.932c-0.73,0.619-1.096,1.324-1.096,2.115c0,0.605,0.23,1.158,0.693,1.656
				c0.666,0.732,2.25,1.709,4.753,2.93c2.041,0.996,3.435,1.76,4.181,2.293c0.747,0.531,1.322,1.158,1.725,1.881
				s0.604,1.48,0.604,2.271c0,1.504-0.642,2.801-1.925,3.889c-1.285,1.09-2.936,1.633-4.955,1.633c-0.635,0-1.23-0.043-1.789-0.131
				c-0.333-0.049-1.023-0.227-2.07-0.535c-1.047-0.307-1.711-0.461-1.99-0.461c-0.269,0-0.48,0.072-0.637,0.219
				s-0.271,0.449-0.346,0.908h-0.597v-6.811h0.597c0.279,1.426,0.654,2.492,1.127,3.201c0.473,0.707,1.195,1.295,2.168,1.764
				c0.972,0.469,2.038,0.703,3.198,0.703c1.343,0,2.403-0.322,3.183-0.967c0.778-0.645,1.168-1.406,1.168-2.285
				c0-0.488-0.148-0.98-0.443-1.479s-0.754-0.963-1.377-1.393c-0.42-0.293-1.563-0.914-3.433-1.867
				c-1.869-0.951-3.198-1.711-3.987-2.277c-0.791-0.566-1.389-1.191-1.797-1.875s-0.613-1.436-0.613-2.256
				c0-1.426,0.602-2.654,1.805-3.684c1.203-1.031,2.734-1.547,4.593-1.547c1.16,0,2.39,0.26,3.69,0.777
				c0.602,0.244,1.025,0.365,1.272,0.365c0.279,0,0.507-0.074,0.685-0.227c0.178-0.15,0.32-0.457,0.428-0.916H581.7z"/>
			<path fill="#000005" d="M600.952,302.078c2.836,0,5.293,0.98,7.371,2.938c2.079,1.959,3.118,4.402,3.118,7.332
				c0,3.018-1.048,5.521-3.142,7.514c-2.096,1.992-4.631,2.988-7.605,2.988c-3.008,0-5.535-0.971-7.582-2.914
				c-2.046-1.943-3.069-4.459-3.069-7.545c0-3.154,1.182-5.727,3.545-7.719C595.64,302.943,598.095,302.078,600.952,302.078z
				 M600.646,303.148c-1.955,0-3.523,0.658-4.705,1.977c-1.472,1.641-2.207,4.043-2.207,7.207c0,3.242,0.762,5.738,2.287,7.486
				c1.172,1.328,2.719,1.992,4.641,1.992c2.053,0,3.747-0.729,5.084-2.184c1.338-1.455,2.006-3.75,2.006-6.885
				c0-3.398-0.735-5.932-2.207-7.602C604.362,303.813,602.729,303.148,600.646,303.148z"/>
			<path fill="#000005" d="M626.858,321.854v0.543h-9.361v-0.543h0.773c0.902,0,1.557-0.238,1.965-0.717
				c0.258-0.313,0.387-1.064,0.387-2.256v-12.832c0-1.006-0.069-1.67-0.209-1.992c-0.107-0.244-0.328-0.455-0.66-0.631
				c-0.473-0.234-0.967-0.352-1.482-0.352h-0.773v-0.541h9.361v0.541h-0.789c-0.893,0-1.542,0.24-1.95,0.719
				c-0.269,0.313-0.403,1.064-0.403,2.256v12.832c0,1.006,0.07,1.67,0.21,1.992c0.107,0.244,0.333,0.453,0.677,0.629
				c0.462,0.234,0.951,0.352,1.467,0.352H626.858z"/>
			<path fill="#000005" d="M653.925,322.396h-5.833l-7.396-9.287c-0.549,0.02-0.994,0.029-1.338,0.029
				c-0.14,0-0.29-0.002-0.451-0.008c-0.161-0.004-0.328-0.012-0.5-0.021v5.771c0,1.25,0.15,2.025,0.451,2.328
				c0.408,0.43,1.021,0.645,1.838,0.645h0.854v0.543h-9.361v-0.543h0.821c0.924,0,1.585-0.273,1.981-0.82
				c0.227-0.303,0.339-1.02,0.339-2.152v-12.832c0-1.25-0.15-2.027-0.451-2.33c-0.419-0.43-1.042-0.645-1.869-0.645h-0.821v-0.541
				h7.959c2.32,0,4.031,0.154,5.133,0.461c1.101,0.309,2.035,0.875,2.804,1.699c0.768,0.826,1.151,1.809,1.151,2.951
				c0,1.221-0.438,2.281-1.313,3.18c-0.876,0.898-2.232,1.533-4.068,1.904l4.512,5.697c1.031,1.309,1.917,2.178,2.658,2.607
				s1.708,0.703,2.9,0.82V322.396z M638.407,312.186c0.205,0,0.382,0.004,0.532,0.008c0.15,0.006,0.274,0.008,0.37,0.008
				c2.084,0,3.655-0.41,4.714-1.23c1.058-0.82,1.587-1.865,1.587-3.135c0-1.24-0.427-2.248-1.281-3.025
				c-0.854-0.775-1.984-1.164-3.392-1.164c-0.623,0-1.466,0.092-2.53,0.277V312.186z"/>
			<path fill="#000005" d="M664.491,303.617v7.852h4.802c1.246,0,2.079-0.172,2.497-0.514c0.559-0.449,0.871-1.24,0.936-2.373h0.596
				v6.914h-0.596c-0.15-0.967-0.301-1.586-0.451-1.859c-0.193-0.342-0.511-0.611-0.951-0.807s-1.117-0.293-2.03-0.293h-4.802v6.549
				c0,0.879,0.043,1.414,0.129,1.604c0.086,0.191,0.236,0.342,0.451,0.455c0.215,0.111,0.623,0.168,1.225,0.168h3.706
				c1.235,0,2.132-0.078,2.69-0.234s1.096-0.465,1.611-0.924c0.666-0.605,1.349-1.518,2.047-2.738h0.645l-1.885,4.98h-16.839v-0.543
				h0.773c0.516,0,1.005-0.111,1.466-0.336c0.344-0.156,0.578-0.391,0.701-0.703s0.186-0.953,0.186-1.92V305.99
				c0-1.26-0.14-2.037-0.419-2.33c-0.387-0.391-1.031-0.586-1.934-0.586h-0.773v-0.541h16.839l0.241,4.35h-0.628
				c-0.227-1.045-0.476-1.762-0.75-2.152c-0.273-0.391-0.68-0.689-1.217-0.895c-0.43-0.146-1.187-0.219-2.271-0.219H664.491z"/>
			<path fill="#000005" d="M696.843,302.078v6.871h-0.596c-0.193-1.318-0.541-2.369-1.039-3.15c-0.5-0.781-1.212-1.4-2.136-1.859
				s-1.88-0.689-2.868-0.689c-1.117,0-2.041,0.311-2.771,0.932c-0.73,0.619-1.096,1.324-1.096,2.115c0,0.605,0.23,1.158,0.693,1.656
				c0.666,0.732,2.25,1.709,4.753,2.93c2.041,0.996,3.435,1.76,4.181,2.293c0.747,0.531,1.322,1.158,1.725,1.881
				s0.604,1.48,0.604,2.271c0,1.504-0.642,2.801-1.925,3.889c-1.285,1.09-2.936,1.633-4.955,1.633c-0.635,0-1.23-0.043-1.789-0.131
				c-0.333-0.049-1.023-0.227-2.07-0.535c-1.047-0.307-1.711-0.461-1.99-0.461c-0.269,0-0.48,0.072-0.637,0.219
				s-0.271,0.449-0.346,0.908h-0.597v-6.811h0.597c0.279,1.426,0.654,2.492,1.127,3.201c0.473,0.707,1.195,1.295,2.168,1.764
				c0.972,0.469,2.038,0.703,3.198,0.703c1.343,0,2.403-0.322,3.183-0.967c0.778-0.645,1.168-1.406,1.168-2.285
				c0-0.488-0.148-0.98-0.443-1.479s-0.754-0.963-1.377-1.393c-0.42-0.293-1.563-0.914-3.433-1.867
				c-1.869-0.951-3.198-1.711-3.987-2.277c-0.791-0.566-1.389-1.191-1.797-1.875s-0.613-1.436-0.613-2.256
				c0-1.426,0.602-2.654,1.805-3.684c1.203-1.031,2.734-1.547,4.593-1.547c1.16,0,2.39,0.26,3.69,0.777
				c0.602,0.244,1.025,0.365,1.272,0.365c0.279,0,0.507-0.074,0.685-0.227c0.178-0.15,0.32-0.457,0.428-0.916H696.843z"/>
		</g>
	</g>
</g>
</svg>
